<svg width="140" height="140" viewBox="0 0 140 140" fill="none" xmlns="http://www.w3.org/2000/svg">
<rect width="140" height="140" rx="8" fill="white"/>
<rect x="20" y="20" width="100" height="100" rx="8" fill="#DC0132"/>
<g clip-path="url(#clip0_3071_78934)">
<path d="M82.4339 77.7507C80.9552 78.1274 79.0289 78.3138 77.3542 78.3138C73.0555 78.3138 70.209 76.1122 70.209 72.0828C70.209 68.2692 72.8602 65.7989 76.7405 65.7989C77.6054 65.7989 78.526 65.9048 79.0847 66.1744V60.6387H82.4339V77.7507ZM79.0847 69.0211C78.5542 68.7794 77.8567 68.6451 77.018 68.6451C74.982 68.6451 73.6139 69.8543 73.6139 71.9759C73.6139 74.2594 75.0928 75.5491 77.4655 75.5491C77.8843 75.5491 78.526 75.5215 79.0847 75.4148V69.0211V69.0211ZM109.918 77.7507C108.438 78.1274 106.512 78.3138 104.837 78.3138C100.539 78.3138 97.691 76.1122 97.691 72.0828C97.691 68.2692 100.343 65.7989 104.224 65.7989C105.089 65.7989 106.01 65.9048 106.568 66.1744V60.6387H109.917V77.7507H109.918ZM106.568 69.0211C106.037 68.7794 105.339 68.6451 104.502 68.6451C102.465 68.6451 101.098 69.8543 101.098 71.9759C101.098 74.2594 102.577 75.5491 104.949 75.5491C105.367 75.5491 106.01 75.5215 106.568 75.4148V69.0211ZM87.701 68.9946C88.2589 68.7793 89.0392 68.6995 89.7091 68.6995C91.775 68.6995 93.1986 69.8541 93.1986 71.9216C93.1986 74.3606 91.6218 75.4636 89.5134 75.492V78.3121C89.5687 78.3121 89.6251 78.314 89.6819 78.314C94.0074 78.314 96.604 75.978 96.604 71.8147C96.604 68.0274 93.8411 65.7989 89.7658 65.7989C87.7009 65.7989 85.6624 66.2556 84.3231 66.7922V82.8824H87.701V68.9946Z" fill="white"/>
<path d="M52.0308 68.205C51.8923 68.2828 51.675 68.2767 51.5398 68.1962L50.7435 67.7407C50.6787 67.7021 50.6192 67.6403 50.5743 67.5659C50.5717 67.5616 50.569 67.5572 50.5664 67.5528C50.5155 67.473 50.4866 67.3888 50.4836 67.3115L50.4634 66.4182C50.4574 66.2677 50.5606 66.0842 50.6997 66.006L60.2718 60.6394L46.8395 53.594C46.6916 53.515 46.4965 53.4769 46.3012 53.4766C46.1057 53.4762 45.9103 53.5154 45.7622 53.594L32.3297 60.6396L47.3776 69.0699C47.517 69.1433 47.623 69.3175 47.623 69.4748V81.7731C47.623 81.9275 47.5082 82.1049 47.3677 82.1771L46.5579 82.6099C46.4906 82.6443 46.4051 82.6627 46.3156 82.6627C46.3105 82.6627 46.3052 82.6627 46.3001 82.6627C46.2029 82.6649 46.1126 82.6465 46.0418 82.6099L45.2294 82.1769C45.0913 82.1063 44.9785 81.928 44.9785 81.7731L44.9786 70.8097C44.9714 70.7294 44.9103 70.6315 44.8434 70.5945L31.5859 63.1675V77.7148C31.5858 78.0404 31.8244 78.442 32.1166 78.6065L45.7705 86.356C45.9164 86.4384 46.1087 86.4794 46.3008 86.4787C46.4931 86.4782 46.6854 86.4396 46.831 86.3562L60.487 78.6065C60.7782 78.4403 61.0161 78.0409 61.0157 77.7148V63.1677L52.0308 68.205Z" fill="white"/>
</g>
<defs>
<clipPath id="clip0_3071_78934">
<rect width="79.0481" height="34.9076" fill="white" transform="translate(30.8691 52.6074)"/>
</clipPath>
</defs>
</svg>
