<svg width="145" height="153" viewBox="0 0 145 153" fill="none" xmlns="http://www.w3.org/2000/svg">
<path d="M133.993 120.393L131.49 123.144C131.066 123.61 130.572 123.945 130.008 124.149C129.437 124.36 128.863 124.412 128.284 124.305C127.699 124.205 127.174 123.943 126.708 123.519C126.242 123.095 125.931 122.597 125.777 122.023C125.616 121.458 125.613 120.881 125.769 120.293C125.919 119.712 126.206 119.189 126.63 118.723L128.002 117.214L124.918 114.408L126.048 113.165L133.993 120.393ZM127.775 119.826C127.533 120.093 127.38 120.38 127.317 120.687C127.261 121.001 127.282 121.297 127.38 121.576C127.478 121.854 127.631 122.088 127.838 122.276C128.045 122.465 128.292 122.595 128.579 122.666C128.865 122.738 129.158 122.727 129.459 122.635C129.759 122.543 130.03 122.364 130.272 122.098L131.675 120.555L129.179 118.284L127.775 119.826Z" fill="white"/>
<path d="M122.574 132.255L119.469 134.411C118.943 134.776 118.383 134.995 117.788 135.067C117.193 135.139 116.63 135.056 116.098 134.816C115.558 134.582 115.109 134.207 114.749 133.689C114.339 133.098 114.167 132.438 114.233 131.71C114.292 130.988 114.554 130.349 115.021 129.794L114.99 129.723L110.142 127.922L110.091 127.848L111.705 126.727L116.429 128.56L117.464 127.842L115.068 124.392L116.448 123.433L122.574 132.255ZM116.666 130.295C116.247 130.586 115.985 130.963 115.88 131.425C115.775 131.888 115.865 132.324 116.15 132.735C116.31 132.965 116.521 133.147 116.785 133.28C117.048 133.414 117.336 133.47 117.649 133.447C117.96 133.438 118.263 133.331 118.558 133.126L120.296 131.92L118.354 129.123L116.666 130.295Z" fill="white"/>
<path d="M100.214 132.936C101.191 132.582 102.163 132.49 103.129 132.661C104.089 132.845 104.946 133.258 105.7 133.9C106.444 134.545 106.992 135.351 107.343 136.32C107.694 137.288 107.789 138.253 107.627 139.216C107.459 140.192 107.066 141.058 106.446 141.814C105.818 142.574 105.014 143.131 104.037 143.485C103.059 143.839 102.085 143.926 101.116 143.746C100.146 143.565 99.2893 143.153 98.545 142.508C97.7947 141.876 97.2441 141.075 96.8931 140.107C96.5422 139.139 96.4505 138.167 96.6181 137.191C96.7764 136.219 97.1699 135.353 97.7987 134.593C98.4308 133.843 99.2358 133.291 100.214 132.936ZM100.76 134.445C100.093 134.687 99.5398 135.069 99.1009 135.589C98.6621 136.11 98.385 136.71 98.2698 137.39C98.1486 138.083 98.2209 138.796 98.4867 139.529C98.7525 140.263 99.1521 140.852 99.6856 141.297C100.213 141.754 100.812 142.042 101.483 142.161C102.153 142.28 102.822 142.218 103.49 141.976C104.157 141.734 104.71 141.353 105.149 140.832C105.579 140.315 105.854 139.71 105.975 139.017C106.09 138.337 106.015 137.63 105.749 136.897C105.484 136.164 105.087 135.568 104.559 135.111C104.026 134.666 103.429 134.382 102.768 134.26C102.097 134.142 101.428 134.203 100.76 134.445Z" fill="white"/>
<path d="M74.4623 137.711C75.5003 137.775 76.4334 138.078 77.2615 138.62C78.0797 139.161 78.7071 139.872 79.1437 140.75C79.5797 141.639 79.7653 142.607 79.7006 143.655C79.6358 144.703 79.3326 145.636 78.7911 146.454C78.249 147.282 77.5387 147.915 76.66 148.351C75.7715 148.787 74.8081 148.973 73.7701 148.909C72.1632 148.81 70.8768 148.144 69.911 146.912L71.165 145.833C71.5071 146.295 71.9013 146.645 72.3474 146.883C72.783 147.13 73.2903 147.271 73.8691 147.307C74.5878 147.352 75.2567 147.228 75.8759 146.935C76.4851 146.642 76.9832 146.202 77.3702 145.615C77.7466 145.037 77.9594 144.349 78.0088 143.55C78.0582 142.752 77.932 142.038 77.6302 141.408C77.3179 140.788 76.8775 140.294 76.309 139.929C75.7305 139.562 75.0819 139.357 74.3633 139.313C73.1656 139.238 72.1167 139.675 71.2166 140.621L70.0761 139.378C70.6227 138.801 71.2759 138.365 72.0354 138.072C72.785 137.777 73.594 137.657 74.4623 137.711Z" fill="white"/>
<path d="M60.4193 147.213L54.1906 145.27L54.6687 143.738L59.2937 145.181L60.1785 142.346L56.0117 141.045L56.4853 139.528L60.6521 140.828L61.5369 137.993L56.9119 136.549L57.39 135.017L63.6187 136.961L60.4193 147.213Z" fill="white"/>
<path d="M44.8388 141.853L41.5842 139.93C41.0332 139.605 40.6007 139.187 40.2868 138.676C39.9729 138.165 39.814 137.619 39.81 137.035C39.7974 136.447 39.9513 135.882 40.2717 135.34C40.6379 134.72 41.1658 134.288 41.8553 134.045C42.5362 133.797 43.2263 133.769 43.9256 133.961L43.9767 133.905L43.5915 128.747L43.6373 128.669L45.3292 129.669L45.6338 134.727L46.7187 135.368L48.8549 131.751L50.3014 132.606L44.8388 141.853ZM44.1559 135.665C43.7168 135.406 43.2652 135.325 42.8011 135.423C42.337 135.52 41.9778 135.784 41.7235 136.215C41.5811 136.456 41.504 136.724 41.4923 137.019C41.4806 137.314 41.5503 137.599 41.7014 137.874C41.8388 138.153 42.0624 138.384 42.3724 138.567L44.1934 139.642L45.9252 136.711L44.1559 135.665Z" fill="white"/>
<path d="M30.4801 130.479L32.6621 132.537L31.5607 133.705L25.9746 128.434L27.076 127.267L29.2581 129.326L35.5271 122.681L36.749 123.834L30.4801 130.479Z" fill="white"/>
<path d="M19.6245 121.626L18.6412 120.264L27.3495 113.978L28.3328 115.34L19.6245 121.626Z" fill="white"/>
<path d="M13.2477 112.546L10.4399 106.656L11.8887 105.965L13.9736 110.339L16.7629 109.009L14.8846 105.069L16.3198 104.384L18.1981 108.325L22.2196 106.408L22.9425 107.924L13.2477 112.546Z" fill="white"/>
<path d="M7.18469 98.6183L6.75143 96.9952L17.1281 94.2254L17.5614 95.8485L7.18469 98.6183Z" fill="white"/>
<path d="M4.41813 87.8802L3.94032 81.3728L5.54101 81.2552L5.8958 86.0872L8.85783 85.8697L8.53819 81.5165L10.1239 81.4L10.4436 85.7533L13.4056 85.5358L13.0508 80.7038L14.6515 80.5863L15.1293 87.0938L4.41813 87.8802Z" fill="white"/>
<path d="M3.55981 71.1767L4.14126 67.776C4.32834 66.6819 4.71276 65.7686 5.29452 65.0362C5.87797 64.2939 6.61091 63.775 7.49333 63.4795C8.36759 63.1725 9.32221 63.1074 10.3572 63.2844C11.3922 63.4613 12.2759 63.8407 13.0083 64.4225C13.7326 64.9927 14.2465 65.7248 14.5502 66.6188C14.8556 67.5029 14.9147 68.492 14.7276 69.5861L14.1462 72.9868L3.55981 71.1767ZM13.138 69.36C13.3403 68.1771 13.1726 67.1999 12.6349 66.4282C12.0891 65.645 11.2346 65.154 10.0715 64.9551C8.91825 64.7579 7.95411 64.938 7.17909 65.4954C6.40575 66.0429 5.91796 66.908 5.71572 68.0909L5.42499 69.7912L12.8473 71.0603L13.138 69.36Z" fill="white"/>
<path d="M11.0761 44.2155L11.8984 42.7505L21.264 48.0074L20.4417 49.4724L11.0761 44.2155Z" fill="white"/>
<path d="M16.7014 34.2306L18.0114 32.726L27.0574 34.2373L27.1165 34.1695L25.4962 32.8781L21.1632 29.1058L22.2565 27.85L30.3568 34.9022L29.2044 36.2259L19.6953 34.6296L19.6362 34.6975L21.2566 35.9888L25.895 40.0271L24.8017 41.2829L16.7014 34.2306Z" fill="white"/>
<path d="M38.1395 27.838C37.4122 28.351 36.6086 28.5996 35.7287 28.5839C34.8488 28.5682 34.0276 28.2541 33.2652 27.6415L34.1928 26.198C34.6636 26.5879 35.1719 26.8229 35.7178 26.9029C36.2661 26.9689 36.7732 26.8377 37.239 26.5092C37.6721 26.2037 37.962 25.834 38.1088 25.4001C38.2497 24.958 38.1819 24.5409 37.9052 24.1486C37.6516 23.7891 37.3093 23.59 36.8783 23.5514C36.4496 23.4988 35.8207 23.5875 34.9917 23.8173L34.3017 24.0103C33.5693 24.2209 32.8674 24.2755 32.1961 24.1738C31.5248 24.0721 30.9672 23.7067 30.5234 23.0775C30.2179 22.6443 30.054 22.1603 30.0316 21.6255C30.0092 21.0906 30.1315 20.5699 30.3984 20.0635C30.6677 19.5432 31.068 19.0957 31.5992 18.721C32.3673 18.1792 33.1128 17.9349 33.8355 17.9881C34.5525 18.033 35.1529 18.2337 35.6367 18.59L34.7704 19.9902C34.4846 19.7758 34.14 19.6517 33.7369 19.6179C33.3337 19.5841 32.9319 19.7084 32.5314 19.9908C32.131 20.2732 31.8639 20.6146 31.7302 21.0148C31.6046 21.4093 31.6542 21.7659 31.879 22.0846C32.0922 22.387 32.3906 22.5498 32.7741 22.573C33.1576 22.5962 33.6742 22.5133 34.324 22.3242L35.0053 22.119C35.9416 21.8503 36.7638 21.7843 37.4722 21.921C38.1829 22.0438 38.7861 22.4566 39.2817 23.1594C39.6852 23.7315 39.8782 24.3173 39.8606 24.9171C39.8373 25.5087 39.6631 26.0598 39.3381 26.5705C39.0212 27.0755 38.6217 27.498 38.1395 27.838Z" fill="white"/>
<path d="M45.3718 12.2685L42.5958 13.4061L41.9872 11.921L49.0936 9.00873L49.7022 10.4939L46.9263 11.6315L50.3903 20.0842L48.8358 20.7213L45.3718 12.2685Z" fill="white"/>
<path d="M58.4872 5.66051L62.2202 5.0663C62.8522 4.96569 63.452 5.01199 64.0194 5.20519C64.5868 5.39839 65.058 5.71831 65.4328 6.16493C65.8176 6.60998 66.0595 7.14359 66.1585 7.76576C66.2717 8.47681 66.1402 9.14579 65.7641 9.77272C65.3978 10.3981 64.884 10.8596 64.2226 11.1573L64.2195 11.2337L67.8051 14.9614L67.8193 15.0503L65.8787 15.3592L62.4187 11.657L61.1744 11.8551L61.8346 16.0029L60.1755 16.267L58.4872 5.66051ZM62.9586 9.99146C63.4622 9.91128 63.8618 9.68568 64.1571 9.31464C64.4524 8.9436 64.5608 8.51118 64.4822 8.0174C64.4382 7.74088 64.3266 7.48524 64.1475 7.25048C63.9684 7.01572 63.7329 6.84056 63.4411 6.72499C63.1576 6.59798 62.8381 6.56277 62.4826 6.61936L60.3939 6.95183L60.9291 10.3145L62.9586 9.99146Z" fill="white"/>
<path d="M78.0081 14.6914C77.2105 14.6298 76.5165 14.3956 75.9261 13.9889C75.3456 13.5829 74.9113 13.0378 74.6232 12.3536C74.3351 11.6694 74.2246 10.8935 74.2916 10.0261L74.8014 3.43079L76.4764 3.56027L75.9597 10.2453C75.898 11.0429 76.0527 11.7018 76.4237 12.222C76.7947 12.7421 77.3641 13.0319 78.1318 13.0912C78.8995 13.1505 79.5066 12.9517 79.9532 12.4948C80.4105 12.0287 80.6696 11.4018 80.7304 10.6141L81.2472 3.92905L82.9072 4.05737L82.3974 10.6527C82.3311 11.5101 82.1081 12.2552 81.7282 12.8878C81.3483 13.5204 80.84 13.9976 80.2033 14.3195C79.5674 14.6314 78.8356 14.7554 78.0081 14.6914Z" fill="white"/>
<path d="M93.5549 17.1651C92.5694 16.8329 91.7474 16.2973 91.089 15.5582C90.4401 14.8224 90.0192 13.9735 89.8264 13.0115C89.6367 12.04 89.7096 11.0568 90.045 10.0618C90.3804 9.06681 90.916 8.24484 91.6519 7.59589C92.3909 6.93746 93.2414 6.51184 94.2034 6.31903C95.1749 6.1294 96.1534 6.2007 97.1389 6.5329C98.6646 7.04718 99.7333 8.02478 100.345 9.46569L98.8532 10.1817C98.6431 9.64652 98.3537 9.20598 97.9849 8.86005C97.6287 8.50783 97.1758 8.23909 96.6262 8.05382C95.9439 7.82383 95.2658 7.76936 94.5918 7.89042C93.9273 8.01467 93.3318 8.30991 92.8053 8.77615C92.2915 9.23611 91.9068 9.84514 91.6512 10.6032C91.3957 11.3613 91.3316 12.0837 91.4589 12.7703C91.5989 13.4507 91.8958 14.0415 92.3494 14.5426C92.8126 15.047 93.3853 15.4142 94.0676 15.6442C95.2047 16.0275 96.331 15.8795 97.4464 15.2002L98.224 16.697C97.5459 17.1122 96.8019 17.3626 95.9921 17.4484C95.1917 17.5374 94.3793 17.443 93.5549 17.1651Z" fill="white"/>
<path d="M110.94 14.3022L108.415 12.6825L109.281 11.3315L115.745 15.478L114.879 16.829L112.354 15.2093L107.422 22.8984L106.008 21.9914L110.94 14.3022Z" fill="white"/>
<path d="M119.142 32.0777C118.437 31.3135 117.976 30.453 117.76 29.496C117.557 28.5397 117.606 27.5898 117.905 26.6464C118.212 25.7104 118.743 24.893 119.5 24.1944C120.257 23.4958 121.111 23.0345 122.061 22.8107C123.025 22.5874 123.976 22.6148 124.913 22.8929C125.857 23.1784 126.681 23.7032 127.387 24.4674C128.092 25.2315 128.55 26.0955 128.759 27.0592C128.968 28.0229 128.919 28.9728 128.613 29.9088C128.321 30.8454 127.796 31.6631 127.039 32.3617C126.282 33.0603 125.422 33.5213 124.458 33.7446C123.5 33.9752 122.549 33.9478 121.605 33.6623C120.669 33.3701 119.848 32.8419 119.142 32.0777ZM120.322 30.9891C120.803 31.5108 121.369 31.8731 122.019 32.076C122.669 32.2789 123.33 32.3018 124.001 32.1447C124.687 31.9881 125.316 31.6453 125.89 31.1162C126.463 30.5871 126.851 29.9905 127.055 29.3264C127.272 28.6628 127.306 27.9989 127.155 27.3348C127.005 26.6706 126.689 26.0777 126.208 25.556C125.726 25.0343 125.16 24.672 124.51 24.4691C123.867 24.2735 123.202 24.254 122.517 24.4106C121.845 24.5677 121.223 24.9108 120.65 25.4399C120.077 25.969 119.681 26.5653 119.464 27.2289C119.26 27.893 119.23 28.5535 119.374 29.2103C119.524 29.8744 119.84 30.4674 120.322 30.9891Z" fill="white"/>
<path d="M137.232 36.6036L139.009 39.94C139.31 40.5049 139.461 41.0871 139.463 41.6865C139.465 42.2859 139.316 42.8355 139.015 43.3353C138.72 43.844 138.294 44.2464 137.738 44.5425C137.102 44.8809 136.427 44.9743 135.712 44.8226C135.001 44.6798 134.398 44.3442 133.901 43.8156L133.828 43.8376L131.47 48.4411L131.39 48.4834L130.467 46.749L132.841 42.2726L132.249 41.1604L128.542 43.1345L127.752 41.6517L137.232 36.6036ZM134.592 42.241C134.832 42.6912 135.175 42.9955 135.622 43.1541C136.069 43.3126 136.513 43.2743 136.954 43.0393C137.202 42.9077 137.407 42.719 137.571 42.4732C137.734 42.2275 137.823 41.9478 137.838 41.6343C137.865 41.3249 137.795 41.0113 137.626 40.6936L136.631 38.8268L133.626 40.4272L134.592 42.241Z" fill="white"/>
</svg>
